<?xml version="1.0" encoding="UTF-8"?>
<svg width="24px" height="24px" viewBox="0 0 24 24" version="1.1" xmlns="http://www.w3.org/2000/svg" xmlns:xlink="http://www.w3.org/1999/xlink">
    <!-- Generator: Sketch 52.5 (67469) - http://www.bohemiancoding.com/sketch -->
    <title>Icons / sidenav/ users </title>
    <desc>Created with Sketch.</desc>
    <defs>
        <path d="M-2.04281037e-14,17.2501989 L0.00277136363,15.2642603 C0.00277136363,14.146956 0.369001935,13.0871318 1.06262977,12.1996796 C2.01806594,10.9767897 3.44945815,10.2751215 4.99043897,10.2751215 L8.10315932,10.2751215 C9.07214438,10.2751215 10.0157082,10.5571163 10.8296337,11.0917157 C12.2449794,12.0204647 13.090998,13.5801608 13.090998,15.2641577 L13.090998,17.2501989 L11.4778591,17.2501989 L11.4778591,15.2641577 C11.4778591,13.4024172 9.96359968,11.8881578 8.10185918,11.8881578 L4.98913882,11.8881578 C3.12739832,11.8881578 1.61313892,13.4024172 1.61313892,15.2641577 L1.61313892,17.2501989 L-2.04281037e-14,17.2501989 Z M6.54486603,9.64160828 C3.88651245,9.64160828 1.72406189,7.47775493 1.72406189,4.82080414 C1.72406189,2.16245056 3.88651245,4.4408921e-15 6.54486603,4.4408921e-15 C9.20321961,4.4408921e-15 11.3656702,2.16251899 11.3656702,4.82080414 C11.3656702,7.47915772 9.20315119,9.64160828 6.54486603,9.64160828 Z M6.54486603,1.61183877 C4.77533325,1.61183877 3.33593488,3.05123714 3.33593488,4.82076993 C3.33593488,6.59030271 4.77533325,8.02970108 6.54486603,8.02970108 C8.31439882,8.02970108 9.75379719,6.59030271 9.75379719,4.82076993 C9.75379719,3.05123714 8.31439882,1.61183877 6.54486603,1.61183877 Z" id="path-1"></path>
    </defs>
    <g id="Icons-/-sidenav/-users-" stroke="none" stroke-width="1" fill="none" fill-rule="evenodd">
        <g id="np_users_943303_000000" transform="translate(5.000000, 3.000000)">
            <g id="↳🎨-Color">
                <mask id="mask-2" fill="white">
                    <use xlink:href="#path-1"></use>
                </mask>
                <use id="Mask" fill="#000000" xlink:href="#path-1"></use>
                <g id="colors-/-black" mask="url(#mask-2)">
                    <g transform="translate(-5.000000, -3.000000)">
                        <rect fill="#F6F9FC" x="0" y="0" width="25" height="24"></rect>
                        <rect id="colors-/-black" stroke="none" fill="#ffffff" fill-rule="evenodd" x="0" y="0" width="25" height="24"></rect>
                    </g>
                </g>
            </g>
        </g>
    </g>
</svg>