<?xml version="1.0" encoding="UTF-8"?>
<svg width="24px" height="24px" viewBox="0 0 24 24" version="1.1" xmlns="http://www.w3.org/2000/svg" xmlns:xlink="http://www.w3.org/1999/xlink">
    <!-- Generator: Sketch 52.5 (67469) - http://www.bohemiancoding.com/sketch -->
    <title>Icons / sidenav/ company info</title>
    <desc>Created with Sketch.</desc>
    <defs>
        <path d="M8.16562162,8.51855405 C8.16562162,9.92585135 6.05413514,9.92585135 6.05413514,8.51855405 C6.05413514,7.11125676 8.16562162,7.11125676 8.16562162,8.51855405 Z M11.8818378,8.51855405 C11.8818378,9.92585135 9.77035135,9.92585135 9.77035135,8.51855405 C9.77035135,7.11125676 11.8818378,7.11125676 11.8818378,8.51855405 Z M8.16562162,12.0658514 C8.16562162,13.4731486 6.05413514,13.4731486 6.05413514,12.0658514 C6.05413514,10.6585541 8.16562162,10.6585541 8.16562162,12.0658514 Z M11.8818378,12.0658514 C11.8818378,13.4731486 9.77035135,13.4731486 9.77035135,12.0658514 C9.77035135,10.6585541 11.8818378,10.6585541 11.8818378,12.0658514 Z M8.16562162,15.6131486 C8.16562162,17.0204459 6.05413514,17.0204459 6.05413514,15.6131486 C6.05413514,14.2058514 8.16562162,14.2058514 8.16562162,15.6131486 Z M11.8818378,15.6131486 C11.8818378,17.0204459 9.77035135,17.0204459 9.77035135,15.6131486 C9.77035135,14.2058514 11.8818378,14.2058514 11.8818378,15.6131486 Z M15.9358919,13.3328784 C15.5980541,13.3328784 15.3024324,13.0372568 15.3024324,12.6994189 C15.3024324,12.3615811 15.5980541,12.0659595 15.9358919,12.0659595 L18.0473784,12.0659595 C18.3852162,12.0659595 18.6808378,12.3615811 18.6808378,12.6994189 C18.6808378,13.0372568 18.3852162,13.3328784 18.0473784,13.3328784 L15.9358919,13.3328784 Z M15.9358919,15.4442297 C15.5980541,15.4442297 15.3024324,15.1486081 15.3024324,14.8107703 C15.3024324,14.4729324 15.5980541,14.1773108 15.9358919,14.1773108 L18.0473784,14.1773108 C18.3852162,14.1773108 18.6808378,14.4729324 18.6808378,14.8107703 C18.6808378,15.1486081 18.3852162,15.4442297 18.0473784,15.4442297 L15.9358919,15.4442297 Z M15.9358919,17.5558514 C15.5980541,17.5558514 15.3024324,17.2602297 15.3024324,16.9223919 C15.3024324,16.5845541 15.5980541,16.2889324 15.9358919,16.2889324 L18.0473784,16.2889324 C18.3852162,16.2889324 18.6808378,16.5845541 18.6808378,16.9223919 C18.6808378,17.2602297 18.3852162,17.5558514 18.0473784,17.5558514 L15.9358919,17.5558514 Z M21.2145405,18.7804459 L21.2145405,18.7803243 C21.5523784,18.7803243 21.848,19.0759459 21.848,19.4137838 C21.848,19.7516216 21.5523784,20.0472432 21.2145405,20.0472432 L2.63345946,20.0472432 C2.29562162,20.0472432 2,19.7516216 2,19.4137838 C2,19.0759459 2.29562162,18.7803243 2.63345946,18.7803243 L3.26691892,18.7803243 L3.26691892,5.90032432 C3.26691892,4.84459459 4.11151351,4 5.16724324,4 L12.7685946,4 C13.8243243,4 14.6689189,4.84459459 14.6689189,5.90032432 L14.6689189,9.61654054 C14.8800811,9.53208108 15.0912297,9.48985135 15.3023784,9.48985135 L18.6807568,9.48985135 C19.7364865,9.48985135 20.5810811,10.3344459 20.5810811,11.3901757 L20.5810811,18.7804459 L21.2145405,18.7804459 Z M15.3023784,10.7566622 L15.3022703,10.7566622 C14.9644324,10.7566622 14.6688108,11.0522838 14.6688108,11.3901216 L14.6688108,18.7803919 L19.3142162,18.7803919 L19.3142162,11.3901216 C19.3142162,11.0522838 19.0185946,10.7566622 18.6807568,10.7566622 L15.3023784,10.7566622 Z M4.53372973,5.90017568 L4.53389189,18.7801757 L13.402,18.7801757 L13.402,5.90017568 C13.402,5.56233784 13.1063784,5.26671622 12.7685405,5.26671622 L5.16718919,5.26671622 C4.82935135,5.26671622 4.53372973,5.56233784 4.53372973,5.90017568 Z" id="path-1"></path>
    </defs>
    <g id="Icons-/-sidenav/-company-info" stroke="none" stroke-width="1" fill="none" fill-rule="evenodd">
        <mask id="mask-2" fill="white">
            <use xlink:href="#path-1"></use>
        </mask>
        <use id="Combined-Shape" fill="#000000" xlink:href="#path-1"></use>
        <g id="colors-/-black" mask="url(#mask-2)">
            <rect fill="#F6F9FC" x="0" y="0" width="25" height="24"></rect>
            <rect fill="#111111" fill-rule="evenodd" x="0" y="0" width="25" height="24"></rect>
        </g>
    </g>
</svg>