<?xml version="1.0" encoding="UTF-8"?>
<svg width="24px" height="24px" viewBox="0 0 24 24" version="1.1" xmlns="http://www.w3.org/2000/svg" xmlns:xlink="http://www.w3.org/1999/xlink">
    <!-- Generator: Sketch 52.5 (67469) - http://www.bohemiancoding.com/sketch -->
    <title>Icons / Download</title>
    <desc>Created with Sketch.</desc>
    <defs>
        <path d="M8.98744375,0 L8.9873725,4.98790845e-16 C9.408803,4.98790845e-16 9.75074135,0.377331357 9.75074135,0.842382848 L9.75074135,11.118892 L12.6263518,7.97427684 C12.7585418,7.77903776 12.962313,7.65728817 13.1829749,7.63973853 C13.4036394,7.62218889 13.620314,7.7121301 13.776367,7.88433562 C13.9334123,8.05651867 14.0139248,8.29564589 13.9980213,8.53914789 C13.9821178,8.78374779 13.8717881,9.00750433 13.6948621,9.15338538 L9.52228795,13.7589732 C9.22510846,14.0803423 8.74998769,14.0803423 8.45278276,13.7589732 L4.30590873,9.15338538 C4.12799036,9.00751275 4.01766066,8.78374498 4.00175714,8.53914789 C3.986846,8.29564309 4.06735851,8.05654114 4.22341146,7.88433562 C4.38043643,7.7121301 4.59713395,7.62218889 4.81779589,7.63973853 C5.03846038,7.65728817 5.24122641,7.77903776 5.37441901,7.97427684 L8.22407491,11.118892 L8.22407491,0.842382848 C8.22407491,0.377331357 8.56601326,0 8.98744375,0 Z M18,12.8498333 L17.9999886,15.1578299 C17.9999886,15.758662 17.7604166,16.3351748 17.3345359,16.7601056 C16.9086552,17.1850364 16.3308487,17.4240521 15.728625,17.4240521 L2.27136359,17.4240521 C1.66916832,17.4240521 1.09134762,17.1850223 0.665452749,16.7601056 C0.239557879,16.335189 1.0658141e-13,15.7586904 1.0658141e-13,15.1578299 L3.62376795e-13,12.8498447 C3.62376795e-13,12.38068 0.3815323,12.0000113 0.851761348,12.0000113 C1.3219904,12.0000113 1.7035227,12.38068 1.7035227,12.8498447 L1.7035227,15.1578299 C1.7035227,15.470985 1.95748954,15.7243854 2.27136359,15.7243854 L15.728625,15.7243854 C15.8794691,15.7243854 16.0236468,15.6646308 16.130117,15.5584017 C16.2365871,15.4521725 16.2964773,15.3083099 16.2964773,15.1578186 L16.2964773,12.8498333 C16.2964773,12.3806687 16.6780096,12 17.1482387,12 C17.6184677,12 18,12.3806687 18,12.8498333 Z" id="path-1"></path>
    </defs>
    <g id="Icons-/-Download" stroke="none" stroke-width="1" fill="none" fill-rule="evenodd">
        <g id="↳🎨-Color" transform="translate(3.000000, 3.000000)">
            <mask id="mask-2" fill="white">
                <use xlink:href="#path-1"></use>
            </mask>
            <use id="Mask" fill="#000000" xlink:href="#path-1"></use>
            <g id="colors-/-black" mask="url(#mask-2)">
                <g transform="translate(-3.000000, -3.000000)">
                    <rect fill="#F6F9FC" x="0" y="0" width="24" height="24"></rect>
                    <rect id="colors-/-black" stroke="none" fill="#111111" fill-rule="evenodd" x="0" y="0" width="24" height="24"></rect>
                </g>
            </g>
        </g>
    </g>
</svg>