<?xml version="1.0" encoding="UTF-8"?>
<svg width="24px" height="24px" viewBox="0 0 24 24" version="1.1" xmlns="http://www.w3.org/2000/svg" xmlns:xlink="http://www.w3.org/1999/xlink">
    <!-- Generator: Sketch 52.5 (67469) - http://www.bohemiancoding.com/sketch -->
    <title>Icons / dashboard</title>
    <desc>Created with Sketch.</desc>
    <defs>
        <path d="M11.9867747,2.10389734 L11.9867747,3.69012595 C11.9867747,3.79978637 12.075673,3.8886853 12.185334,3.8886853 L13.7715626,3.8886853 L11.9867747,2.10389734 Z M14.7212711,5.22054915 L12.185334,5.22054915 C11.3401028,5.22054915 10.6549108,4.53535241 10.6549108,3.69012595 L10.6549108,1.33186401 L1.53219467,1.33186401 C1.4215559,1.33186401 1.33186385,1.42155544 1.33186385,1.53219483 L1.33186385,19.6926261 C1.33186385,19.8032648 1.42155528,19.8929569 1.53219467,19.8929569 L14.5209403,19.8929569 C14.6315791,19.8929569 14.7212711,19.8032654 14.7212711,19.6926261 L14.7212711,5.22054915 Z M11.131857,1.60594467e-07 C11.5387056,-0.000186011427 11.9279194,0.161502171 12.2154376,0.449020379 L15.604839,3.83842176 C15.8916384,4.12525948 16.053135,4.51541507 16.053135,4.92139153 L16.053135,19.6926261 C16.053135,20.5388356 15.3671451,21.2248207 14.5209403,21.2248207 L1.53219467,21.2248207 C0.685985126,21.2248207 0,20.5388309 0,19.6926261 L0,1.53219483 C0,0.685985287 0.685989863,1.60594467e-07 1.53219467,1.60594467e-07 L11.131857,1.60594467e-07 Z M8.46542548,7.32506518 L8.46554171,11.5120645 L12.6527066,11.5120645 L12.6527066,11.9865654 C12.6527066,14.5602851 10.565459,16.6481121 7.99141558,16.6481121 C6.91170055,16.6481121 5.85645317,16.2685114 5.02600597,15.5805898 C3.94625607,14.6911041 3.32965963,13.3860524 3.32965963,11.9866119 C3.32965963,9.41289224 5.41690722,7.32506518 7.99095064,7.32506518 L8.46542548,7.32506518 Z M11.66784,12.4611128 L7.51635957,12.4606362 L7.51635957,8.3090442 C5.69029399,8.53432168 4.2786093,10.1003373 4.2786093,11.9861353 C4.2786093,13.1012472 4.77671489,14.1452073 5.63078122,14.8567377 C6.2946043,15.4025299 7.13688431,15.6990407 7.99095064,15.6990407 C9.87711017,15.6990407 11.4308235,14.2878597 11.66784,12.4611128 Z M9.08222007,5.99320132 C11.0478882,5.99320132 12.6527066,7.58708484 12.6527066,9.56368785 L12.6527066,9.98879288 L8.65711504,9.98879288 L8.65711504,5.99320132 L9.08222007,5.99320132 Z M9.50691895,9.12806454 L11.759809,9.12806454 C11.5791237,7.98042675 10.665075,7.05579728 9.50691895,6.8751745 L9.50691895,9.12806454 Z" id="path-1"></path>
    </defs>
    <g id="Icons-/-dashboard" stroke="none" stroke-width="1" fill="none" fill-rule="evenodd">
        <g id="np_graph_1000895_000000" transform="translate(4.000000, 1.000000)">
            <g id="↳🎨-Color">
                <mask id="mask-2" fill="white">
                    <use xlink:href="#path-1"></use>
                </mask>
                <use id="Mask" fill="#000000" fill-rule="nonzero" xlink:href="#path-1"></use>
                <g id="colors-/-black" mask="url(#mask-2)">
                    <g transform="translate(-4.000000, -1.000000)">
                        <rect fill="#F6F9FC" x="0" y="0" width="25" height="24"></rect>
                        <rect id="colors-/-black" stroke="none" fill="#111111" fill-rule="evenodd" x="0" y="0" width="25" height="24"></rect>
                    </g>
                </g>
            </g>
        </g>
        <g id="np_graph_1448004_000000" transform="translate(8.000000, 8.000000)"></g>
    </g>
</svg>