<?xml version="1.0" encoding="UTF-8"?>
<svg width="832px" height="624px" viewBox="0 0 832 624" version="1.1" xmlns="http://www.w3.org/2000/svg" xmlns:xlink="http://www.w3.org/1999/xlink">
    <!-- Generator: Sketch 52.3 (67297) - http://www.bohemiancoding.com/sketch -->
    <title>illus/ login</title>
    <desc>Created with Sketch.</desc>
    <defs>
        <linearGradient x1="50.01507%" y1="100%" x2="50.01507%" y2="0.00796355692%" id="linearGradient-1">
            <stop stop-color="#808080" stop-opacity="0.25" offset="0%"></stop>
            <stop stop-color="#808080" stop-opacity="0.12" offset="54%"></stop>
            <stop stop-color="#808080" stop-opacity="0.1" offset="100%"></stop>
        </linearGradient>
        <linearGradient x1="-0.00544108931%" y1="50.0283101%" x2="100.01758%" y2="50.0283101%" id="linearGradient-2">
            <stop stop-color="#808080" stop-opacity="0.25" offset="0%"></stop>
            <stop stop-color="#808080" stop-opacity="0.12" offset="54%"></stop>
            <stop stop-color="#808080" stop-opacity="0.1" offset="100%"></stop>
        </linearGradient>
        <linearGradient x1="50.0036425%" y1="100%" x2="50.0036425%" y2="0%" id="linearGradient-3">
            <stop stop-color="#808080" stop-opacity="0.25" offset="0%"></stop>
            <stop stop-color="#808080" stop-opacity="0.12" offset="54%"></stop>
            <stop stop-color="#808080" stop-opacity="0.1" offset="100%"></stop>
        </linearGradient>
        <linearGradient x1="50%" y1="100%" x2="50%" y2="0%" id="linearGradient-4">
            <stop stop-color="#808080" stop-opacity="0.25" offset="0%"></stop>
            <stop stop-color="#808080" stop-opacity="0.12" offset="54%"></stop>
            <stop stop-color="#808080" stop-opacity="0.1" offset="100%"></stop>
        </linearGradient>
        <linearGradient x1="50.0088763%" y1="100%" x2="50.0088763%" y2="0%" id="linearGradient-5">
            <stop stop-color="#808080" stop-opacity="0.25" offset="0%"></stop>
            <stop stop-color="#808080" stop-opacity="0.12" offset="54%"></stop>
            <stop stop-color="#808080" stop-opacity="0.1" offset="100%"></stop>
        </linearGradient>
        <linearGradient x1="50.0431779%" y1="100.191693%" x2="50.0431779%" y2="0%" id="linearGradient-6">
            <stop stop-color="#808080" stop-opacity="0.25" offset="0%"></stop>
            <stop stop-color="#808080" stop-opacity="0.12" offset="54%"></stop>
            <stop stop-color="#808080" stop-opacity="0.1" offset="100%"></stop>
        </linearGradient>
        <linearGradient x1="49.9918593%" y1="100%" x2="49.9918593%" y2="0%" id="linearGradient-7">
            <stop stop-color="#808080" stop-opacity="0.25" offset="0%"></stop>
            <stop stop-color="#808080" stop-opacity="0.12" offset="54%"></stop>
            <stop stop-color="#808080" stop-opacity="0.1" offset="100%"></stop>
        </linearGradient>
        <linearGradient x1="49.9835796%" y1="100%" x2="49.9835796%" y2="0%" id="linearGradient-8">
            <stop stop-color="#808080" stop-opacity="0.25" offset="0%"></stop>
            <stop stop-color="#808080" stop-opacity="0.12" offset="54%"></stop>
            <stop stop-color="#808080" stop-opacity="0.1" offset="100%"></stop>
        </linearGradient>
        <linearGradient x1="49.9931497%" y1="99.9833194%" x2="49.9931497%" y2="0%" id="linearGradient-9">
            <stop stop-color="#808080" stop-opacity="0.25" offset="0%"></stop>
            <stop stop-color="#808080" stop-opacity="0.12" offset="54%"></stop>
            <stop stop-color="#808080" stop-opacity="0.1" offset="100%"></stop>
        </linearGradient>
        <linearGradient x1="49.9989355%" y1="100%" x2="49.9989355%" y2="0%" id="linearGradient-10">
            <stop stop-color="#808080" stop-opacity="0.25" offset="0%"></stop>
            <stop stop-color="#808080" stop-opacity="0.12" offset="54%"></stop>
            <stop stop-color="#808080" stop-opacity="0.1" offset="100%"></stop>
        </linearGradient>
        <linearGradient x1="49.9969943%" y1="100%" x2="49.9969943%" y2="0%" id="linearGradient-11">
            <stop stop-color="#808080" stop-opacity="0.25" offset="0%"></stop>
            <stop stop-color="#808080" stop-opacity="0.12" offset="54%"></stop>
            <stop stop-color="#808080" stop-opacity="0.1" offset="100%"></stop>
        </linearGradient>
        <rect id="path-12" x="0.0771710526" y="0.0854368932" width="22.7881579" height="15.7700971"></rect>
        <linearGradient x1="49.9969943%" y1="100.005925%" x2="49.9969943%" y2="0%" id="linearGradient-14">
            <stop stop-color="#808080" stop-opacity="0.25" offset="0%"></stop>
            <stop stop-color="#808080" stop-opacity="0.12" offset="54%"></stop>
            <stop stop-color="#808080" stop-opacity="0.1" offset="100%"></stop>
        </linearGradient>
        <rect id="path-15" x="0.0771710526" y="0.00735294118" width="22.7881579" height="14.9294118"></rect>
        <linearGradient x1="9.00646748e-15%" y1="49.9989355%" x2="100%" y2="49.9989355%" id="linearGradient-17">
            <stop stop-color="#808080" stop-opacity="0.25" offset="0%"></stop>
            <stop stop-color="#808080" stop-opacity="0.12" offset="54%"></stop>
            <stop stop-color="#808080" stop-opacity="0.1" offset="100%"></stop>
        </linearGradient>
        <linearGradient x1="0.0060114217%" y1="50.0034497%" x2="100.006011%" y2="50.0034497%" id="linearGradient-18">
            <stop stop-color="#808080" stop-opacity="0.25" offset="0%"></stop>
            <stop stop-color="#808080" stop-opacity="0.12" offset="54%"></stop>
            <stop stop-color="#808080" stop-opacity="0.1" offset="100%"></stop>
        </linearGradient>
        <linearGradient x1="50.0035804%" y1="99.9522605%" x2="50.0035804%" y2="-0.0429655798%" id="linearGradient-19">
            <stop stop-color="#808080" stop-opacity="0.25" offset="0%"></stop>
            <stop stop-color="#808080" stop-opacity="0.12" offset="54%"></stop>
            <stop stop-color="#808080" stop-opacity="0.1" offset="100%"></stop>
        </linearGradient>
        <linearGradient x1="50.0002659%" y1="100.049377%" x2="50.0002659%" y2="0.0607623353%" id="linearGradient-20">
            <stop stop-color="#808080" stop-opacity="0.25" offset="0%"></stop>
            <stop stop-color="#808080" stop-opacity="0.12" offset="54%"></stop>
            <stop stop-color="#808080" stop-opacity="0.1" offset="100%"></stop>
        </linearGradient>
    </defs>
    <g id="illus/-login" stroke="none" stroke-width="1" fill="none" fill-rule="evenodd">
        <g id="Login-graphic">
            <path d="M479.955382,17.4763983 C415.065611,42.5578993 344.727296,43.7242602 279.392166,20.1125637 C186.795371,-13.3420811 65.8661559,-21.9048771 21.0554476,131.400464 C-55.423137,393.319608 101.040051,486.808651 101.040051,486.808651 C101.040051,486.808651 210.27622,511.311713 270.759779,555.586014 C356.676187,618.474678 461.894648,639.497622 561.010742,610.006708 C624.393874,591.145798 678.718211,560.204045 694.248926,509.576395 C737.685654,367.982077 710.111291,282.875661 788.721914,245.542629 C867.332537,208.209597 823.592586,69.9057438 767.685802,66.7670002 C711.779019,63.6282566 580.066427,95.707923 539.320806,31.8994467 C524.794518,9.24549367 502.57394,8.72395018 479.955382,17.4763983 Z" id="Path" fill="#000000" opacity="0.0221772693"></path>
            <g id="undraw_organizing_projects1_47ja" transform="translate(86.000000, 106.000000)">
                <path d="M303.933778,284.652388 C299.116125,267.20158 272.374553,254.337801 251.507643,251.014179 L251.507643,242.629751 L252.658127,242.184688 C252.549291,240.51036 252.213054,238.858561 251.658644,237.274629 C260.576213,233.649094 268.273675,227.560734 273.848611,219.723323 C285.729963,207.298335 291.361062,190.184537 289.1743,173.146136 C286.987538,156.107736 277.216415,140.964072 262.581055,131.930898 C266.661005,129.371309 268.642736,124.492648 267.500923,119.819079 C266.35911,115.145509 262.34993,111.725591 257.547686,111.328752 C261.475803,102.076798 258.565256,91.3429597 250.49865,85.3325311 C242.432044,79.3221025 231.296401,79.5901237 223.5293,85.9816502 C230.301138,82.3846378 238.4666,82.5970706 245.041584,86.5413142 C251.616568,90.4855578 255.637535,97.5835984 255.635005,105.241427 C255.635005,105.435245 255.635005,105.621885 255.635005,105.808525 C255.383876,97.1719517 250.05064,89.497174 242.035283,86.2378845 C234.019926,82.978595 224.833036,84.7490446 218.608763,90.752521 C212.38449,96.7559975 210.295872,105.861076 213.282799,113.970421 C209.886105,114.698158 207.038765,116.995635 205.613616,120.158572 C204.188468,123.321509 204.355499,126.972635 206.063509,129.992717 C190.033862,138.399346 178.951952,153.901888 176.200376,171.768412 C173.448801,189.634937 179.354145,207.744858 192.113886,220.570379 C197.421079,227.708663 204.519301,233.32422 212.693175,236.8511 L212.693175,250.82754 C191.603358,253.835309 163.833541,266.935978 158.987126,284.817493 C154.759096,300.401904 150.243445,317.515325 148,327.565153 C167.249042,341.067815 207.638235,349 232.956082,349 C257.008396,349 296.31901,341.821552 315,329.546405 C313.001033,318.505951 308.348762,300.638793 303.933778,284.652388 Z M265.37817,123.438794 C265.37817,123.639791 265.37817,123.833609 265.37817,124.027427 C265.085519,118.953318 261.322358,114.752922 256.303724,113.898636 C256.514647,113.539714 256.715981,113.176006 256.907729,112.807512 C261.866023,113.950563 265.378085,118.358565 265.37817,123.438794 Z" id="Shape" fill="url(#linearGradient-1)" fill-rule="nonzero"></path>
                <path d="M233.41085,345 C256.745513,345 294.877942,338.044935 313,326.101458 C311.039888,315.378168 306.538093,298.022804 302.230156,282.490542 C296.780614,262.709159 262.374551,249 241.847228,249 L222.080973,249 C201.496211,249 167.039888,262.79529 161.654966,282.655626 C157.555245,297.793121 153.153969,314.423551 151,324.185047 C169.66773,337.269757 208.855604,345 233.41085,345 Z" id="Path" fill="#ECBF0D"></path>
                <circle id="Oval" fill="#000000" cx="232.5" cy="181.5" r="55.5"></circle>
                <path d="M217.292311,218 L245.764167,218 C248.103553,218 250,219.939561 250,222.33213 L250,252.108303 C250,261.989615 242.167674,270 232.50601,270 L230.49399,270 C220.832326,270 213,261.989615 213,252.108303 L213,222.361011 C213,219.968442 214.896447,218.028881 217.235833,218.028881 L217.292311,218 Z" id="Path" fill="#FDA57D"></path>
                <path d="M235.021477,244.99999 C241.180379,245.003987 247.28309,243.8358 253,241.558525 C252.391478,232.260048 244.637275,225.021168 235.262704,225 L233.737296,225 C224.520514,225.006612 216.829215,231.997173 216,241.121289 C222.010504,243.682196 228.482048,245.001819 235.021477,244.99999 Z" id="Path" fill="#000000" opacity="0.05"></path>
                <circle id="Oval" fill="#FDA57D" cx="234" cy="192" r="49"></circle>
                <circle id="Oval" fill="#000000" cx="216.5" cy="126.5" r="10.5"></circle>
                <circle id="Oval" fill="#000000" cx="254.5" cy="126.5" r="10.5"></circle>
                <circle id="Oval" fill="#000000" cx="235" cy="109" r="21"></circle>
                <path d="M256.732921,113.000108 C254.69038,112.996073 252.693543,113.636888 251,114.839889 C255.868822,113.03684 261.251494,115.320797 263.575002,120.175671 C265.89851,125.030545 264.440968,130.947986 260.169891,134 C264.885775,132.236307 267.706549,127.146293 266.846217,121.95274 C265.985884,116.759188 261.695341,112.976666 256.691177,113.000108 L256.732921,113.000108 Z" id="Path" fill="#000000"></path>
                <path d="M238.246893,84.0000947 C233.41268,83.9853139 228.725957,85.7011567 225,88.8498763 C234.422182,83.7248007 246.110234,86.7306637 252.038481,95.8034702 C257.966727,104.876277 256.206894,117.064924 247.967381,124 C256.394564,119.423674 260.689317,109.56782 258.380824,100.102617 C256.07233,90.6374136 247.7541,83.9963474 238.211699,84.0000947 L238.246893,84.0000947 Z" id="Path" fill="#000000"></path>
                <path d="M198,147.089502 C198,147.089502 203.881298,185.823112 278,164.692436 L241.528779,133 L198,147.089502 Z" id="Path" fill="#000000"></path>
                <g id="Group" opacity="0.7" transform="translate(31.000000, 290.000000)" fill="url(#linearGradient-2)">
                    <path d="M57.13,38.0668493 C58.2388455,33.5854246 56.4927097,28.8790796 52.737561,26.2279452 C51.7234962,25.6425631 50.7412776,25.0029263 49.795122,24.3117808 C48.3776923,22.9525762 47.3575263,21.2279333 46.8456098,19.3254795 C45.3673171,14.8663014 44.907561,9.85863014 42.3187805,5.82684932 C39.9634146,2.15835616 35.38,1.08273973 31.3129268,0.719452055 C29.8377957,0.476435546 28.3254207,0.618688801 26.9204878,1.13260274 C24.6570732,2.16547945 23.574878,4.85808219 23.4687805,7.36547945 C23.3626829,9.87287671 24.0134146,12.3517808 24.1760976,14.8378082 C24.3387805,17.3238356 23.8931707,20.0876712 22.0541463,21.7830137 C20.215122,23.4783562 17.5980488,23.6778082 15.1719512,24.019726 C11.9937998,24.4660288 8.87135284,25.249187 5.85658537,26.3561644 C3.32439024,27.2821918 0.502195122,28.9632877 0.38195122,31.6772603 C0.282926829,33.8926027 2.05829268,35.6663014 3.39512195,37.4257534 C5.98219405,40.7365071 7.03549413,45.0054956 6.28804878,49.1506849 C5.42512195,53.2821918 2.54634146,56.8224658 2.04414634,61.0109589 C1.84779673,62.0580205 1.97877402,63.1406397 2.41902439,64.109589 C2.82516588,64.7726452 3.36199315,65.3447928 3.99634146,65.7906849 C5.5595122,67.0087671 7.30658537,67.9846575 8.79195122,69.309589 C11.8829268,72.0663014 13.5521951,76.0624658 14.8395122,79.9945205 C14.9668293,80.3720548 15.0729268,80.7567123 15.1931707,81.1413699 L12.1587805,81.1413699 C5.96186315,81.1570307 0.942136047,86.2123251 0.926585366,92.4531507 C0.942136047,98.6939763 5.96186315,103.749271 12.1587805,103.764932 L42.4743902,103.764932 C48.6713076,103.749271 53.6910347,98.6939763 53.7065854,92.4531507 C53.6563098,86.2456725 48.6595607,81.2325681 42.4956098,81.2054795 L34.1846341,81.2054795 C36.1509756,78.5556164 38.2021951,76.0624658 41.2578049,75.0438356 C44.3134146,74.0252055 47.9631707,74.6235616 50.3397561,72.4936986 C51.4555864,71.3885849 52.1789472,69.9441295 52.3980488,68.3835616 C52.901188,65.5986796 52.4313199,62.7242576 51.0682927,60.2487671 C50.1134146,58.5320548 48.7129268,56.9720548 48.4087805,55.0273973 C48.2554918,53.3368727 48.6580963,51.6424621 49.5546341,50.2049315 C51.8321951,45.9594521 55.8921951,42.7041096 57.13,38.0668493 Z" id="Path"></path>
                </g>
                <path d="M61.790006,292.111453 C60.3686389,291.877142 58.911326,292.013661 57.5573199,292.507964 C55.3729388,293.502847 54.3344625,296.112613 54.2341958,298.513309 C54.1339291,300.914005 54.7570149,303.307492 54.9503863,305.722607 C55.1437578,308.137721 54.6782339,310.769115 52.9164052,312.412835 C51.1545765,314.056555 48.619262,314.236787 46.2773189,314.575624 C43.2084728,315.004051 40.1932496,315.758012 37.2819657,316.824925 C34.839756,317.718878 32.1182319,319.333761 32.0036414,321.950736 C31.9105367,324.113525 33.6222321,325.793291 34.911375,327.494686 C37.401777,330.680735 38.4184317,334.787384 37.7045181,338.777236 C36.8737371,342.756769 34.1235654,346.173976 33.5935844,350.211182 C33.4090469,351.235498 33.5493611,352.292296 33.9946511,353.231878 C34.3859829,353.870828 34.9026103,354.422764 35.5129751,354.85397 C37.0241371,356.029085 38.7071849,356.973503 40.1324041,358.24234 C43.1117567,360.895361 44.7231854,364.730708 45.969357,368.558845 C47.1909868,372.299825 48.1482949,376.123078 48.8341191,380 C51.3980813,378.341862 54.7140435,378.363489 57.4284056,377.008141 C63.2581966,374.124422 65.2205587,365.797684 71.3726354,363.721406 C74.2875309,362.740942 77.8183503,363.317685 80.1316457,361.263036 C81.2106114,360.197825 81.9104307,358.804129 82.1226554,357.297922 C82.6060272,354.608795 82.1478918,351.834149 80.8263505,349.446997 C79.9024647,347.788858 78.5560265,346.289324 78.2623884,344.400488 C78.1134509,342.770675 78.5009952,341.136778 79.3653218,339.750491 C81.5783506,335.698866 85.488751,332.541194 86.6847892,328.093057 C87.7491313,323.77465 86.0641643,319.242122 82.4449412,316.687948 C81.4577757,316.125008 80.501468,315.508921 79.580179,314.842368 C78.2065895,313.53609 77.2156529,311.875262 76.7154168,310.040976 C75.2830358,305.715397 74.8461595,300.921215 72.3466545,297.06424 C70.1336258,293.495638 65.7147301,292.493546 61.790006,292.111453 Z" id="Path" fill="#4DB6AC"></path>
                <path d="M61.9425691,292 C61.9425691,292 67.5344485,365.427536 53,378" id="Path" stroke="#535461" opacity="0.6"></path>
                <rect id="Rectangle" fill="#ECBF0D" x="33" y="369" width="51" height="22" rx="11"></rect>
                <path d="M32,321.095327 C32,321.095327 45.9615564,319.43214 63,330" id="Path" stroke="#535461" opacity="0.6"></path>
                <path d="M63,338 C68.5646607,329.892033 77.2589694,324.45809 87,323" id="Path" stroke="#535461" opacity="0.6"></path>
                <path d="M33,349.933449 C33,349.933449 51.4994885,346.806068 60,352" id="Path" stroke="#535461" opacity="0.6"></path>
                <path d="M60,359 C60,359 69.8657718,355.043816 81,358.259771" id="Path" stroke="#535461" opacity="0.6"></path>
                <g id="Group" opacity="0.7" transform="translate(387.000000, 348.000000)" fill="url(#linearGradient-3)" fill-rule="nonzero">
                    <path d="M40.1661429,8.30322581 L40.1661429,0.567741935 L0.480857143,0.567741935 L0.480857143,36.3283871 C0.480857143,40.4908325 3.94502191,43.8651613 8.21828571,43.8651613 L32.4287143,43.8651613 C36.7019781,43.8651613 40.1661429,40.4908325 40.1661429,36.3283871 L40.1661429,28.3870968 C45.8658398,28.3870968 50.4863571,23.8864031 50.4863571,18.3345161 C50.4863571,12.7826291 45.8658398,8.28193548 40.1661429,8.28193548 L40.1661429,8.30322581 Z M40.1661429,24.5406452 L40.1661429,12.163871 C42.4858944,12.0873186 44.6638725,13.249113 45.8470307,15.1942154 C47.030189,17.1393178 47.030189,19.5581015 45.8470307,21.503204 C44.6638725,23.4483064 42.4858944,24.6101008 40.1661429,24.5335484 L40.1661429,24.5406452 Z" id="Shape"></path>
                </g>
                <path d="M426.500139,357 C422.657804,357 419.19381,359.314567 417.723412,362.864422 C416.253014,366.414277 417.065781,370.500336 419.782723,373.217277 C422.499664,375.934219 426.585723,376.746986 430.135578,375.276588 C433.685433,373.80619 436,370.342196 436,366.499861 C436,361.253233 431.746767,357 426.500139,357 Z M426.500139,372.34819 C423.253965,372.34819 420.622421,369.716646 420.622421,366.470473 C420.622421,363.224299 423.253965,360.592755 426.500139,360.592755 C429.746313,360.592755 432.377856,363.224299 432.377856,366.470473 C432.377856,369.716646 429.746313,372.34819 426.500139,372.34819 Z" id="Shape" fill="#ECBF0D" fill-rule="nonzero"></path>
                <path d="M426.500139,357 C422.657804,357 419.19381,359.314567 417.723412,362.864422 C416.253014,366.414277 417.065781,370.500336 419.782723,373.217277 C422.499664,375.934219 426.585723,376.746986 430.135578,375.276588 C433.685433,373.80619 436,370.342196 436,366.499861 C436,361.253233 431.746767,357 426.500139,357 Z M426.500139,372.34819 C423.253965,372.34819 420.622421,369.716646 420.622421,366.470473 C420.622421,363.224299 423.253965,360.592755 426.500139,360.592755 C429.746313,360.592755 432.377856,363.224299 432.377856,366.470473 C432.377856,369.716646 429.746313,372.34819 426.500139,372.34819 Z" id="Shape" fill="#000000" fill-rule="nonzero" opacity="0.1"></path>
                <path d="M391,350 L426,350 L426,383.004484 C426,386.868001 422.928371,390 419.139324,390 L397.860676,390 C394.071629,390 391,386.868001 391,383.004484 L391,350 Z" id="Path" fill="#ECBF0D"></path>
                <rect id="Rectangle" fill="#E0E0E0" x="0" y="390" width="464" height="15"></rect>
                <g id="Group" opacity="0.7" transform="translate(132.000000, 277.000000)" fill="url(#linearGradient-4)">
                    <rect id="Rectangle" x="0.374927536" y="0.0430188679" width="197.961739" height="113.354717" rx="14.5"></rect>
                </g>
                <rect id="Rectangle" fill="#535461" x="136" y="278" width="190" height="111" rx="26.84"></rect>
                <circle id="Oval" fill="#FFFFFF" cx="231.5" cy="333.5" r="6.5"></circle>
                <rect id="Rectangle" fill="#E0E0E0" x="19" y="405" width="425" height="7"></rect>
                <rect id="Rectangle" fill="#000000" opacity="0.1" x="19" y="405" width="425" height="2"></rect>
                <path d="M419.258503,350 L419.258503,383.034111 C419.258503,386.881265 416.008761,390 412,390 L415.741497,390 C419.750257,390 423,386.881265 423,383.034111 L423,350 L419.258503,350 Z" id="Path" fill="#000000" opacity="0.1"></path>
                <path d="M397.695655,322.936304 C397.081914,322.955579 396.508682,323.24895 396.132087,323.736513 C395.670124,324.579591 396.508765,325.536984 397.276334,326.115707 C398.697759,327.187415 400.183148,328.259124 401.149717,329.738082 C402.116286,331.21704 402.414786,333.310445 401.362931,334.73939 C399.991256,336.611308 396.707764,337.018557 396.387944,339.319159 C396.181837,340.798117 397.454013,342.062733 398.747509,342.805785 C401.931501,344.641979 406.039419,345.12782 408.342128,348 C409.294483,346.028056 411.433727,344.8849 413.558757,344.427637 C415.683788,343.970375 417.894104,343.97752 420.05467,343.648862 C420.776824,343.635629 421.448577,343.274047 421.859879,342.67718 C422.463985,341.448287 420.744061,339.969329 421.341059,338.740436 C421.795915,337.797332 423.11784,337.875924 424.084409,337.497254 C425.662191,336.882808 426.308939,334.846561 425.861191,333.210419 C425.413442,331.574277 424.148373,330.288226 422.819341,329.237952 C419.265779,326.380061 414.930433,324.743919 410.573765,323.522171 C408.548234,322.964883 406.167348,322.093226 404.063639,322.00749 C401.95993,321.921753 399.728292,322.593357 397.695655,322.936304 Z" id="Path" fill="#EEEEEE"></path>
                <rect id="Rectangle" fill="#535461" opacity="0.0690522693" x="308" y="0" width="312" height="213"></rect>
                <rect id="Rectangle" fill="url(#linearGradient-5)" x="451" y="48" width="41" height="38"></rect>
                <rect id="Rectangle" fill="#F5F5F5" x="451" y="47" width="40" height="37"></rect>
                <g id="Group" opacity="0.5" transform="translate(463.000000, 53.000000)" fill="url(#linearGradient-6)" fill-rule="nonzero">
                    <path d="M12.7125,1.91125 L12.7125,0.089375 L5.475,0.089375 L5.475,1.91125 L0.405,1.91125 L0.405,10.84875 L17.775,10.84875 L17.775,1.91125 L12.7125,1.91125 Z M6.375,0.749375 L11.805,0.749375 L11.805,1.91125 L6.375,1.91125 L6.375,0.749375 Z" id="Shape"></path>
                </g>
                <rect id="Rectangle" fill="#ECBF0D" opacity="0.6" x="464" y="55" width="15" height="9"></rect>
                <polygon id="Path" fill="#ECBF0D" opacity="0.6" points="468 53 468 55 468.878959 55 468.878959 53.5695793 474.121041 53.5695793 474.121041 55 475 55 475 53"></polygon>
                <g id="Group" opacity="0.6" transform="translate(465.000000, 69.000000)" fill="#ECBF0D">
                    <rect id="Rectangle" x="0.528571429" y="0.3225" width="14.0428571" height="1.9875"></rect>
                </g>
                <rect id="Rectangle" fill="#BDBDBD" x="459" y="74" width="24" height="2"></rect>
                <g id="Group" opacity="0.5" transform="translate(510.000000, 14.000000)" fill="url(#linearGradient-7)">
                    <rect id="Rectangle" x="0.0715447154" y="0.0284137931" width="87.8855285" height="102.516966"></rect>
                </g>
                <rect id="Rectangle" fill="#FFFFFF" x="513" y="14" width="84" height="99"></rect>
                <g id="Group" opacity="0.5" transform="translate(542.000000, 28.000000)" fill="url(#linearGradient-8)" fill-rule="nonzero">
                    <path d="M16.114375,3.02727273 L16.114375,0.647727273 L7.0078125,0.647727273 L7.0078125,3.02727273 L0.6253125,3.02727273 L0.6253125,14.7068182 L22.51125,14.7068182 L22.51125,3.02727273 L16.114375,3.02727273 Z M8.13625,1.51363636 L14.97875,1.51363636 L14.97875,3.02727273 L8.13625,3.02727273 L8.13625,1.51363636 Z" id="Shape"></path>
                </g>
                <rect id="Rectangle" fill="#ECBF0D" x="545" y="31" width="20" height="11"></rect>
                <polygon id="Path" fill="#ECBF0D" points="550 29 550 32 551.124031 32 551.124031 29.8571429 557.875969 29.8571429 557.875969 32 559 32 559 29"></polygon>
                <rect id="Rectangle" fill="#E0E0E0" x="525" y="58" width="58" height="2"></rect>
                <rect id="Rectangle" fill="#E0E0E0" x="525" y="75" width="58" height="2"></rect>
                <rect id="Rectangle" fill="#E0E0E0" x="525" y="79" width="58" height="2"></rect>
                <rect id="Rectangle" fill="#E0E0E0" x="525" y="70" width="25" height="2"></rect>
                <rect id="Rectangle" fill="#3AD29F" opacity="0.6" x="565" y="70" width="19" height="2"></rect>
                <rect id="Rectangle" fill="#ECBF0D" x="546" y="89" width="19" height="2"></rect>
                <g id="Group" opacity="0.5" transform="translate(458.000000, 144.000000)" fill="url(#linearGradient-9)">
                    <rect id="Rectangle" x="0.313783784" y="0.692459016" width="53.262973" height="43.242623"></rect>
                </g>
                <rect id="Rectangle" fill="#F2F2F2" x="458" y="146" width="51" height="42"></rect>
                <rect id="Rectangle" fill="#ECBF0D" x="458" y="146" width="51" height="9"></rect>
                <rect id="Rectangle" fill="#000000" opacity="0.1" x="458" y="146" width="51" height="9"></rect>
                <rect id="Rectangle" fill="#E0E0E0" x="464" y="158" width="43" height="6"></rect>
                <rect id="Rectangle" fill="#E0E0E0" x="463" y="168" width="31" height="2"></rect>
                <rect id="Rectangle" fill="#E0E0E0" x="464" y="171" width="20" height="2"></rect>
                <rect id="Rectangle" fill="#E0E0E0" x="464" y="176" width="26" height="2"></rect>
                <rect id="Rectangle" fill="#E0E0E0" x="463" y="177" width="31" height="2"></rect>
                <rect id="Rectangle" fill="#E0E0E0" x="464" y="180" width="11" height="2"></rect>
                <g id="Group" opacity="0.5" transform="translate(425.000000, 129.000000)" fill="url(#linearGradient-4)">
                    <rect id="Rectangle" x="0.523695652" y="0.701973684" width="64.8952174" height="53.7697368"></rect>
                </g>
                <rect id="Rectangle" fill="#FFFFFF" x="427" y="131" width="63" height="52"></rect>
                <rect id="Rectangle" fill="#ECBF0D" x="427" y="131" width="63" height="11"></rect>
                <rect id="Rectangle" fill="#F5F5F5" x="431" y="146" width="54" height="7"></rect>
                <rect id="Rectangle" fill="#E0E0E0" x="431" y="159" width="39" height="2"></rect>
                <rect id="Rectangle" fill="#E0E0E0" x="432" y="162" width="25" height="2"></rect>
                <rect id="Rectangle" fill="#E0E0E0" x="432" y="167" width="33" height="2"></rect>
                <rect id="Rectangle" fill="#E0E0E0" x="431" y="169" width="39" height="2"></rect>
                <rect id="Rectangle" fill="#E0E0E0" x="431" y="175" width="13" height="2"></rect>
                <rect id="Rectangle" fill="#69F0AE" x="435" y="149" width="15" height="2"></rect>
            </g>
            <g id="undraw_secure_data_0rwp" transform="translate(379.000000, 117.000000)">
                <g id="Group" opacity="0.5" transform="translate(24.000000, 14.000000)" fill="url(#linearGradient-10)">
                    <rect id="Rectangle" x="0.137579618" y="0.0167088608" width="71.7997452" height="95.8693671"></rect>
                </g>
                <rect id="Rectangle" fill="#F2F2F2" x="26" y="15" width="69" height="93"></rect>
                <rect id="Rectangle" fill="#E0E0E0" x="31" y="18" width="24" height="1"></rect>
                <rect id="Rectangle" fill="#ECBF0D" opacity="0.7" x="31" y="21" width="24" height="1"></rect>
                <rect id="Rectangle" fill="#E0E0E0" x="59" y="18" width="24" height="1"></rect>
                <rect id="Rectangle" fill="#E0E0E0" x="62" y="39" width="24" height="1"></rect>
                <rect id="Rectangle" fill="#E0E0E0" x="63" y="42" width="24" height="1"></rect>
                <rect id="Rectangle" fill="#E0E0E0" x="64" y="44" width="24" height="1"></rect>
                <rect id="Rectangle" fill="#E0E0E0" x="62" y="72" width="24" height="1"></rect>
                <rect id="Rectangle" fill="#E0E0E0" x="63" y="74" width="24" height="1"></rect>
                <rect id="Rectangle" fill="#E0E0E0" x="64" y="77" width="24" height="1"></rect>
                <g id="Group" opacity="0.5" transform="translate(31.000000, 32.000000)" fill="url(#linearGradient-11)">
                    <rect id="Rectangle" x="0.109880952" y="0.0994117647" width="25.7446429" height="25.8149412"></rect>
                </g>
                <rect id="Rectangle" fill="#F5F5F5" x="31" y="32" width="25" height="25"></rect>
                <g id="Group" opacity="0.5" transform="translate(32.000000, 34.000000)" fill="url(#linearGradient-4)">
                    <rect id="Rectangle" x="0.0825974026" y="0.0150943396" width="23.7974026" height="15.8777358"></rect>
                </g>
                <rect id="689f37f3-cc41-448d-b172-63ec123bc985" fill="#FFFFFF" x="33" y="35" width="23" height="15"></rect>
                <g id="Clipped" transform="translate(54.000000, 44.000000)">
                    <mask id="mask-13" fill="white">
                        <use xlink:href="#path-12"></use>
                    </mask>
                    <g id="8cc91f6d-19b0-43cc-9c18-2faa83ac34ba"></g>
                    <g id="Group" mask="url(#mask-13)" fill="#ECBF0D" opacity="0.4">
                        <g transform="translate(-24.059211, -9.941748)">
                            <polygon id="Path" points="0.880657895 14.7852427 6.61855263 5.66368932 9.02447368 9.65436893 14.2055263 4.14446602 18.6481579 9.65436893 22.5354605 1.48504854 32.5298684 17.8252427 0.140723684 16.6850485"></polygon>
                            <ellipse id="Oval" cx="5.32177632" cy="1.86407767" rx="1.66598684" ry="1.71029126"></ellipse>
                        </g>
                    </g>
                </g>
                <g id="Group" opacity="0.5" transform="translate(31.000000, 65.000000)" fill="url(#linearGradient-14)">
                    <rect id="Rectangle" x="0.109880952" y="0.0215384615" width="25.7446429" height="25.9676923"></rect>
                </g>
                <rect id="Rectangle" fill="#F5F5F5" x="31" y="65" width="25" height="25"></rect>
                <g id="Group" opacity="0.5" transform="translate(32.000000, 67.000000)" fill="url(#linearGradient-4)">
                    <rect id="Rectangle" x="0.0825974026" y="0.0905660377" width="23.7974026" height="15.8777358"></rect>
                </g>
                <rect id="b429ac3a-f8a8-4171-bcce-5b6c002c0714" fill="#FFFFFF" x="33" y="68" width="23" height="15"></rect>
                <g id="Clipped" transform="translate(54.000000, 78.000000)">
                    <mask id="mask-16" fill="white">
                        <use xlink:href="#path-15"></use>
                    </mask>
                    <g id="5b44e697-61fe-43bd-9a58-5f3e41301748"></g>
                    <g id="Group" mask="url(#mask-16)" fill="#BDBDBD" opacity="0.4">
                        <g transform="translate(-24.059211, -9.411765)">
                            <polygon id="Path" points="0.880657895 13.9220588 6.61855263 5.28823529 9.02447368 9.06617647 14.2055263 3.85 18.6481579 9.06617647 22.5354605 1.33088235 32.5298684 16.8 0.140723684 15.7205882"></polygon>
                            <ellipse id="Oval" cx="5.32177632" cy="1.69117647" rx="1.66598684" ry="1.61911765"></ellipse>
                        </g>
                    </g>
                </g>
                <g id="Group" opacity="0.5" transform="translate(35.000000, 8.000000)" fill="url(#linearGradient-17)">
                    <polygon id="Rectangle" transform="translate(44.532201, 54.533159) rotate(-78.760000) translate(-44.532201, -54.533159) " points="-3.7243115 18.8536335 92.8739865 18.7386266 92.7883991 90.2127469 -3.80989883 90.3277538"></polygon>
                </g>
                <polygon id="Rectangle" fill="#FFFFFF" transform="translate(79.670512, 62.254243) rotate(-78.760000) translate(-79.670512, -62.254243) " points="33.1736937 27.6161781 126.202301 27.5693627 126.16733 96.8923082 33.1387228 96.9391235"></polygon>
                <polygon id="Rectangle" fill="#E0E0E0" transform="translate(82.878563, 20.223912) rotate(11.240000) translate(-82.878563, -20.223912) " points="58.2799347 19.8380878 107.476815 19.8629058 107.47719 20.6097372 58.2803105 20.5849191"></polygon>
                <polygon id="Rectangle" fill="#E0E0E0" transform="translate(69.149272, 89.490957) rotate(11.240000) translate(-69.149272, -89.490957) " points="44.5506443 89.1051322 93.7475242 89.1299502 93.7479 89.8767816 44.5510201 89.8519635"></polygon>
                <polygon id="Rectangle" fill="#E0E0E0" transform="translate(62.831200, 92.613555) rotate(11.240000) translate(-62.831200, -92.613555) " points="43.8232309 92.2305505 81.838794 92.2497279 81.8391698 92.9965592 43.8236068 92.9773818"></polygon>
                <polygon id="Rectangle" fill="#ECBF0D" opacity="0.7" transform="translate(50.300431, 94.496774) rotate(11.240000) translate(-50.300431, -94.496774) " points="43.2187933 94.1197863 57.381693 94.126931 57.3820689 94.8737623 43.2191691 94.8666176"></polygon>
                <polygon id="Rectangle" fill="#ECBF0D" opacity="0.7" transform="translate(69.981820, 22.037055) rotate(11.240000) translate(-69.981820, -22.037055) " points="57.6827928 21.6574355 82.2804709 21.6698441 82.2808468 22.4166755 57.6831686 22.4042668"></polygon>
                <polygon id="Rectangle" fill="#E0E0E0" transform="translate(78.833355, 28.180802) rotate(11.240000) translate(-78.833355, -28.180802) " points="56.6571679 27.7961997 101.009166 27.8185736 101.009542 28.565405 56.6575437 28.543031"></polygon>
                <polygon id="Rectangle" fill="#3AD29F" opacity="0.7" transform="translate(61.549873, 29.118310) rotate(11.240000) translate(-61.549873, -29.118310) " points="56.1456618 28.7421683 66.9537094 28.7476206 66.9540852 29.4944519 56.1460376 29.4889996"></polygon>
                <polygon id="Rectangle" fill="#E0E0E0" transform="translate(79.537391, 37.082987) rotate(11.240000) translate(-79.537391, -37.082987) " points="54.9387636 36.6971619 104.135644 36.7219799 104.136019 37.4688112 54.9391395 37.4439932"></polygon>
                <g id="Group" opacity="0.5" transform="translate(54.000000, 50.000000)" fill="url(#linearGradient-18)">
                    <polygon id="Rectangle" transform="translate(25.013800, 16.967784) rotate(-78.760000) translate(-25.013800, -16.967784) " points="12.3072534 -4.87977822 37.8812151 -4.97209424 37.720346 38.8153471 12.1463844 38.9076631"></polygon>
                </g>
                <polygon id="Rectangle" fill="#FFFFFF" transform="translate(78.952536, 66.396294) rotate(11.240000) translate(-78.952536, -66.396294) " points="57.142793 53.9625426 100.749776 53.9845407 100.762279 78.8300455 57.1552962 78.8080474"></polygon>
                <polygon id="Rectangle" fill="#E0E0E0" transform="translate(78.702158, 41.297529) rotate(11.240000) translate(-78.702158, -41.297529) " points="54.1035305 40.9117047 103.30041 40.9365227 103.300786 41.683354 54.1039063 41.658536"></polygon>
                <polygon id="Rectangle" fill="#ECBF0D" transform="translate(64.697715, 63.554904) rotate(11.240000) translate(-64.697715, -63.554904) " points="61.9911435 54.4938202 67.3951673 54.4965463 67.4042857 72.6159875 62.0002619 72.6132614"></polygon>
                <polygon id="Rectangle" fill="#3AD29F" transform="translate(73.619804, 68.381582) rotate(11.240000) translate(-73.619804, -68.381582) " points="70.9147368 62.3093511 76.3187606 62.3120772 76.3248707 74.4538133 70.9208469 74.4510872"></polygon>
                <polygon id="Rectangle" fill="#F55F44" transform="translate(82.578525, 73.022366) rotate(11.240000) translate(-82.578525, -73.022366) " points="79.8748683 69.7518973 85.2788922 69.7546235 85.2821824 76.2928338 79.8781586 76.2901077"></polygon>
                <polygon id="Rectangle" fill="#FDD835" transform="translate(92.735505, 71.618453) rotate(11.240000) translate(-92.735505, -71.618453) " points="90.0301555 64.9857169 95.4341793 64.988443 95.4408536 78.2511898 90.0368298 78.2484636"></polygon>
                <g id="Group" opacity="0.5" transform="translate(19.000000, 98.000000)" fill="#47E6B1">
                    <rect id="Rectangle" x="1.23571429" y="0.0128571429" width="1" height="2.97"></rect>
                    <polygon id="Rectangle" transform="translate(1.499286, 1.497857) rotate(90.000000) translate(-1.499286, -1.497857) " points="1.23714286 0.0128571429 1.76142857 0.0128571429 1.76142857 2.98285714 1.23714286 2.98285714"></polygon>
                </g>
                <path d="M85.7631962,1.53058362 C85.3753917,1.36161219 85.1760347,0.928608965 85.299808,0.52410446 C85.309624,0.494052092 85.3158458,0.462942839 85.3183436,0.431426821 C85.3245196,0.25208427 85.2152811,0.0888975737 85.0471201,0.0262575955 C84.8789591,-0.0363823826 84.6895814,0.0155698093 84.5769224,0.155247457 C84.5583339,0.180523294 84.5427809,0.207896556 84.5305836,0.236803779 C84.3616122,0.624608334 83.928609,0.823965251 83.5241045,0.700191975 C83.4940521,0.690376011 83.4629428,0.684154161 83.4314268,0.681656447 C83.2520843,0.675480416 83.0888976,0.784718858 83.0262576,0.952879873 C82.9636176,1.12104089 83.0155698,1.31041857 83.1552475,1.42307756 C83.1805233,1.44166609 83.2078966,1.45721908 83.2368038,1.46941638 C83.6246083,1.63838781 83.8239653,2.07139104 83.700192,2.47589554 C83.690376,2.50594791 83.6841542,2.53705716 83.6816564,2.56857318 C83.6754804,2.74791573 83.7847189,2.91110243 83.9528799,2.9737424 C84.1210409,3.03638238 84.3104186,2.98443019 84.4230776,2.84475254 C84.4416661,2.81947671 84.4572191,2.79210344 84.4694164,2.76319622 C84.6383878,2.37539167 85.071391,2.17603475 85.4758955,2.29980803 C85.5059479,2.30962399 85.5370572,2.31584584 85.5685732,2.31834355 C85.7479157,2.32451958 85.9111024,2.21528114 85.9737424,2.04712013 C86.0363824,1.87895911 85.9844302,1.68958143 85.8447525,1.57692244 C85.8194767,1.55833391 85.7921034,1.54278092 85.7631962,1.53058362 Z" id="Path" fill="#4D8AF0" opacity="0.5"></path>
                <path d="M22.7631962,17.5305836 C22.3753917,17.3616122 22.1760347,16.928609 22.299808,16.5241045 C22.309624,16.4940521 22.3158458,16.4629428 22.3183436,16.4314268 C22.3245196,16.2520843 22.2152811,16.0888976 22.0471201,16.0262576 C21.8789591,15.9636176 21.6895814,16.0155698 21.5769224,16.1552475 C21.5583339,16.1805233 21.5427809,16.2078966 21.5305836,16.2368038 C21.3616122,16.6246083 20.928609,16.8239653 20.5241045,16.700192 C20.4940521,16.690376 20.4629428,16.6841542 20.4314268,16.6816564 C20.2520843,16.6754804 20.0888976,16.7847189 20.0262576,16.9528799 C19.9636176,17.1210409 20.0155698,17.3104186 20.1552475,17.4230776 C20.1805233,17.4416661 20.2078966,17.4572191 20.2368038,17.4694164 C20.6246083,17.6383878 20.8239653,18.071391 20.700192,18.4758955 C20.690376,18.5059479 20.6841542,18.5370572 20.6816564,18.5685732 C20.6754804,18.7479157 20.7847189,18.9111024 20.9528799,18.9737424 C21.1210409,19.0363824 21.3104186,18.9844302 21.4230776,18.8447525 C21.4416661,18.8194767 21.4572191,18.7921034 21.4694164,18.7631962 C21.6383878,18.3753917 22.071391,18.1760347 22.4758955,18.299808 C22.5059479,18.309624 22.5370572,18.3158458 22.5685732,18.3183436 C22.7479157,18.3245196 22.9111024,18.2152811 22.9737424,18.0471201 C23.0363824,17.8789591 22.9844302,17.6895814 22.8447525,17.5769224 C22.8194767,17.5583339 22.7921034,17.5427809 22.7631962,17.5305836 Z" id="Path" fill="#FDD835" opacity="0.5"></path>
                <path d="M17.7631962,63.5305836 C17.3753917,63.3616122 17.1760347,62.928609 17.299808,62.5241045 C17.309624,62.4940521 17.3158458,62.4629428 17.3183436,62.4314268 C17.3245196,62.2520843 17.2152811,62.0888976 17.0471201,62.0262576 C16.8789591,61.9636176 16.6895814,62.0155698 16.5769224,62.1552475 C16.5583339,62.1805233 16.5427809,62.2078966 16.5305836,62.2368038 C16.3616122,62.6246083 15.928609,62.8239653 15.5241045,62.700192 C15.4940521,62.690376 15.4629428,62.6841542 15.4314268,62.6816564 C15.2520843,62.6754804 15.0888976,62.7847189 15.0262576,62.9528799 C14.9636176,63.1210409 15.0155698,63.3104186 15.1552475,63.4230776 C15.1805233,63.4416661 15.2078966,63.4572191 15.2368038,63.4694164 C15.6246083,63.6383878 15.8239653,64.071391 15.700192,64.4758955 C15.690376,64.5059479 15.6841542,64.5370572 15.6816564,64.5685732 C15.6754804,64.7479157 15.7847189,64.9111024 15.9528799,64.9737424 C16.1210409,65.0363824 16.3104186,64.9844302 16.4230776,64.8447525 C16.4416661,64.8194767 16.4572191,64.7921034 16.4694164,64.7631962 C16.6383878,64.3753917 17.071391,64.1760347 17.4758955,64.299808 C17.5059479,64.309624 17.5370572,64.3158458 17.5685732,64.3183436 C17.7479157,64.3245196 17.9111024,64.2152811 17.9737424,64.0471201 C18.0363824,63.8789591 17.9844302,63.6895814 17.8447525,63.5769224 C17.8194767,63.5583339 17.7921034,63.5427809 17.7631962,63.5305836 Z" id="Path" fill="#FDD835" opacity="0.5"></path>
                <circle id="Oval" fill="#F55F44" opacity="0.5" cx="51" cy="4" r="1"></circle>
                <circle id="Oval" fill="#F55F44" opacity="0.5" cx="1" cy="48" r="1"></circle>
                <circle id="Oval" fill="#F55F44" opacity="0.5" cx="132" cy="19" r="1"></circle>
                <circle id="Oval" fill="#4D8AF0" opacity="0.5" cx="125" cy="52" r="1"></circle>
                <circle id="Oval" fill="#47E6B1" opacity="0.5" cx="6" cy="22" r="1"></circle>
                <circle id="Oval" fill="#47E6B1" opacity="0.5" cx="130" cy="99" r="1"></circle>
                <circle id="Oval" fill="#47E6B1" opacity="0.5" cx="139" cy="66" r="1"></circle>
                <rect id="Rectangle" fill="url(#linearGradient-4)" x="83" y="92" width="28" height="23"></rect>
                <path d="M89.2977444,87.6669213 C89.2977444,83.0645044 92.9703559,79.3335084 97.5007519,79.3335084 C102.031148,79.3335084 105.703759,83.0645044 105.703759,87.6669213 L105.703759,93 L108,93 L108,87.6669213 C108,81.7757433 103.29899,77 97.5,77 C91.7010101,77 87,81.7757433 87,87.6669213 L87,93 L89.2962406,93 L89.2977444,87.6669213 Z" id="Path" fill="url(#linearGradient-19)"></path>
                <path d="M89.2964344,86.9995027 C89.2964344,82.684761 92.9692958,79.1869717 97.5,79.1869717 C102.030704,79.1869717 105.703566,82.684761 105.703566,86.9995027 L105.703566,92 L108,92 L108,86.9995027 C108,81.4769299 103.29899,77 97.5,77 C91.7010101,77 87,81.4769299 87,86.9995027 L87,92 L89.2964344,92 L89.2964344,86.9995027 Z" id="Path" fill="#F5F5F5"></path>
                <rect id="Rectangle" fill="#ECBF0D" x="83" y="92" width="28" height="23"></rect>
                <rect id="Rectangle" fill="#F5F5F5" x="83" y="92" width="28" height="23"></rect>
                <rect id="Rectangle" fill="#ECBF0D" x="83" y="96" width="28" height="14"></rect>
                <path d="M98.9999918,100.98154 C99.0010509,100.092719 98.4031458,99.3122272 97.5380275,99.0731251 C96.6729091,98.8340229 95.7528187,99.1949696 95.2882734,99.955692 C94.8237281,100.716414 94.9286958,101.690283 95.5449345,102.336941 L95.5449345,106.560164 C95.5449345,107.355363 96.1963943,108 97.0000106,108 C97.803627,108 98.4550868,107.355363 98.4550868,106.560164 L98.4550868,102.341385 C98.8063563,101.9741 99.0014535,101.487223 98.9999918,100.98154 Z" id="Path" fill="url(#linearGradient-20)"></path>
                <path d="M98.9999983,101.761669 C99.0011523,100.971495 98.4032414,100.277588 97.5380604,100.065011 C96.6728794,99.8524351 95.7527181,100.17335 95.2881955,100.849673 C94.8236729,101.525996 94.9287692,102.391778 95.5451639,102.966575 L95.5451639,106.720264 C95.5451639,107.427043 96.1965224,108 97.0000138,108 C97.8035052,108 98.4548637,107.427043 98.4548637,106.720264 L98.4548637,102.966575 C98.8051283,102.641079 99.0002238,102.209861 98.9999983,101.761669 Z" id="Path" fill="#000000" opacity="0.2"></path>
            </g>
        </g>
    </g>
</svg>