<?xml version="1.0" encoding="UTF-8"?>
<svg width="24px" height="24px" viewBox="0 0 24 24" version="1.1" xmlns="http://www.w3.org/2000/svg" xmlns:xlink="http://www.w3.org/1999/xlink">
    <!-- Generator: Sketch 52.5 (67469) - http://www.bohemiancoding.com/sketch -->
    <title>Icons / document</title>
    <desc>Created with Sketch.</desc>
    <defs>
        <path d="M2.71232877,2.71232877 L11.1506849,2.71232877 L11.1506849,3.91780822 L2.71232877,3.91780822 L2.71232877,2.71232877 Z M2.71232877,14.4657534 L6.93150685,14.4657534 L6.93150685,15.6712329 L2.71232877,15.6712329 L2.71232877,14.4657534 Z M20.5555128,4.66766391 L20.5554878,4.66791511 C21.3520287,4.66791511 22,5.31847163 22,6.11721075 L22,22.056574 C22,22.8572725 21.3520287,23.5068493 20.5554878,23.5068493 L9.412773,23.5068493 C8.61623215,23.5068493 7.96826083,22.8562928 7.96826083,22.056574 L7.96826083,18.8389593 L1.44451218,18.8389593 C0.647971322,18.8389593 0,18.1893825 0,17.3896637 L0,1.44929564 C0,0.649576843 0.647971322,0 1.44451218,0 L12.5882278,0 C13.3837929,0 14.0317642,0.649576843 14.0317642,1.44929564 L14.0317642,4.66766391 L20.5555128,4.66766391 Z M1.44438708,17.7340582 L7.96831087,17.7338824 L7.96831087,12.8462933 L2.72884548,12.8462933 L2.72884548,11.7414173 L7.96831087,11.7414173 L7.96831087,10.9044205 L2.72884548,10.9044205 L2.72884548,9.79954454 L7.96831087,9.79954454 L7.96831087,8.96254773 L2.72884548,8.96254773 L2.72884548,7.85767176 L7.96831087,7.85767176 L7.96831087,7.02067495 L2.72884548,7.02067495 L2.72884548,5.91579897 L7.98882737,5.91579897 C8.08753179,5.21223935 8.68468723,4.66763879 9.41282304,4.66763879 L12.9311537,4.66763879 L12.9311537,1.44927052 C12.9311537,1.25988869 12.776732,1.10485086 12.5881027,1.10485086 L1.44438708,1.10485086 C1.25575781,1.10485086 1.10133607,1.25988869 1.10133607,1.44927052 L1.10133607,17.3896386 C1.10133607,17.5790204 1.25575781,17.7340582 1.44438708,17.7340582 Z M20.8995396,22.0574532 L20.8995396,6.11710876 C20.8995396,5.92674725 20.7451179,5.77170942 20.5555128,5.77170942 L9.41279802,5.77170942 C9.22319298,5.77170942 9.06877124,5.92674725 9.06877124,6.11710876 L9.06877124,22.056472 C9.06877124,22.2468335 9.22319298,22.4018714 9.41279802,22.4018714 L20.5555128,22.4028525 C20.7451179,22.4028525 20.8995396,22.2478147 20.8995396,22.0574532 Z M15.2837939,19.9200986 L15.2837939,20.4931507 L14.5701776,20.4931507 L14.5701776,19.9423892 C14.2288409,19.9268751 13.8846079,19.8774237 13.6602599,19.8396091 L13.6602599,18.9659814 L14.2095078,18.9659814 L14.2588233,19.2588124 C14.4222411,19.2646303 14.5837232,19.2685088 14.7935652,19.2685088 C15.1774545,19.2685088 15.3669732,19.146335 15.3669732,18.8884268 C15.3669732,18.6983808 15.2702781,18.6159503 14.9531065,18.4656749 L14.4183646,18.2106734 C13.9136001,17.9721441 13.5616438,17.764638 13.5616438,17.1721995 C13.5616438,16.6069168 13.9078076,16.2946747 14.5692171,16.2064555 L14.5692171,15.6712329 L15.2828334,15.6712329 L15.2828334,16.1812607 C15.6435032,16.2006533 16.0119211,16.258831 16.1482677,16.2947069 L16.1482677,17.131498 L15.5990198,17.131498 L15.5497043,16.8580534 C15.3804866,16.8435092 15.2112639,16.8386609 15.0304339,16.8386609 C14.6639468,16.8386609 14.4667047,16.913322 14.4667047,17.1566867 C14.4667047,17.3321892 14.5488964,17.4136491 14.8737888,17.5590841 L15.3804841,17.784038 C15.9480997,18.0390395 16.2739649,18.281456 16.2739649,18.8583804 C16.275899,19.4643968 15.9113643,19.8221882 15.2837939,19.920113 L15.2837939,19.9200986 Z M10.8493151,8.73972603 L19.2876712,8.73972603 L19.2876712,9.94520548 L10.8493151,9.94520548 L10.8493151,8.73972603 Z M10.8493151,10.5479452 L19.2876712,10.5479452 L19.2876712,11.7534247 L10.8493151,11.7534247 L10.8493151,10.5479452 Z M10.8493151,12.6575342 L19.2876712,12.6575342 L19.2876712,13.8630137 L10.8493151,13.8630137 L10.8493151,12.6575342 Z" id="path-1"></path>
    </defs>
    <g id="Icons-/-document" stroke="none" stroke-width="1" fill="none" fill-rule="evenodd">
        <g id="↳🎨-Color" transform="translate(1.000000, 0.000000)">
            <mask id="mask-2" fill="white">
                <use xlink:href="#path-1"></use>
            </mask>
            <use id="Mask" fill="#000000" opacity="0.396786644" xlink:href="#path-1"></use>
            <g id="colors-/-black" mask="url(#mask-2)">
                <g transform="translate(-1.000000, 0.000000)">
                    <rect fill="#F6F9FC" x="0" y="0" width="24" height="24"></rect>
                    <rect id="colors-/-black" stroke="none" fill="#ffffff" fill-rule="evenodd" x="0" y="0" width="24" height="24"></rect>
                </g>
            </g>
        </g>
    </g>
</svg>