<?xml version="1.0" encoding="UTF-8"?>
<svg width="24px" height="24px" viewBox="0 0 24 24" version="1.1" xmlns="http://www.w3.org/2000/svg" xmlns:xlink="http://www.w3.org/1999/xlink">
    <!-- Generator: Sketch 52.5 (67469) - http://www.bohemiancoding.com/sketch -->
    <title>Icons / sidenav/ sign</title>
    <desc>Created with Sketch.</desc>
    <defs>
        <path d="M9.22074962,0.734962387 L9.22066651,0.735087048 C10.1126177,-0.153602187 11.5555716,-0.153602187 12.4475228,0.735087048 L13.3719275,1.65381964 C13.8012816,2.08234267 14.0415038,2.66343028 14.0415038,3.26969947 C14.0415038,3.87594788 13.8012608,4.45786657 13.3719275,4.8863896 L6.08547776,12.1728393 C5.94263675,12.3156887 5.75191752,12.4017188 5.54982917,12.4138926 L2.3067669,12.6216614 L2.25482471,12.6216614 C2.02108488,12.6224717 1.79872039,12.5250697 1.64045255,12.3538267 C1.48218471,12.1825837 1.40345989,11.952085 1.42374975,11.7199658 L1.69158443,8.54089631 C1.70864225,8.34530281 1.79385444,8.16187626 1.93263773,8.02390535 L9.22074962,0.734962387 Z M5.13019865,10.7768412 L10.5525369,5.35205336 L8.75321801,3.55273451 L3.32276643,8.98401717 L3.1604471,10.9018265 L5.13019865,10.7768412 Z M12.1943358,3.71270273 C12.4370097,3.46921855 12.4370097,3.07479037 12.1943358,2.83130618 L12.1943358,2.83211773 L11.2756032,1.91338513 C11.0321191,1.66990094 10.6385012,1.66990094 10.395017,1.91338513 L9.92753732,2.3808648 L11.7268562,4.18018365 L12.1943358,3.71270398 Z M16.0835589,14.8632368 C16.5429148,14.8632368 16.9146339,15.2357661 16.9146339,15.6943117 C16.9146339,16.1536676 16.5429148,16.5253867 16.0835589,16.5253867 L0.916440817,16.5253867 C0.457084908,16.5253867 0.0853658537,16.1536676 0.0853658537,15.6943117 C0.0853658537,15.2357661 0.457084908,14.8632368 0.916440817,14.8632368 L16.0835589,14.8632368 Z" id="path-1"></path>
    </defs>
    <g id="Icons-/-sidenav/-sign" stroke="none" stroke-width="1" fill="none" fill-rule="evenodd">
        <g id="np_edit_1359758_000000" transform="translate(4.000000, 4.000000)">
            <g id="↳🎨-Color">
                <mask id="mask-2" fill="white">
                    <use xlink:href="#path-1"></use>
                </mask>
                <use id="Mask" fill="#000000" fill-rule="nonzero" xlink:href="#path-1"></use>
                <g id="colors-/-black" mask="url(#mask-2)">
                    <g transform="translate(-4.000000, -4.000000)">
                        <rect fill="#F6F9FC" x="0" y="0" width="25" height="24"></rect>
                        <rect id="colors-/-black" stroke="none" fill="#111111" fill-rule="evenodd" x="0" y="0" width="25" height="24"></rect>
                    </g>
                </g>
            </g>
        </g>
    </g>
</svg>