<?xml version="1.0" encoding="UTF-8"?>
<svg width="24px" height="24px" viewBox="0 0 24 24" version="1.1" xmlns="http://www.w3.org/2000/svg" xmlns:xlink="http://www.w3.org/1999/xlink">
    <!-- Generator: Sketch 52.5 (67469) - http://www.bohemiancoding.com/sketch -->
    <title>Icons / delivery</title>
    <desc>Created with Sketch.</desc>
    <defs>
        <path d="M22.5755378,10.9004 L22.5755203,10.90038 C23.2913203,11.02343 23.8108603,11.64843 23.8010953,12.37498 L23.8010953,15.90048 C23.8010953,16.728605 23.1292203,17.40048 22.3010953,17.40048 L22.0256953,17.40048 C21.7102703,18.491305 20.7112453,19.243255 19.5754953,19.243255 C18.4397453,19.243255 17.4407203,18.491305 17.1252953,17.40048 L9.65079528,17.40048 C9.33829528,18.49423 8.33829528,19.249105 7.20059528,19.25008 C6.05607028,19.25203 5.04827028,18.49813 4.72599528,17.40048 C3.75919528,17.40048 2.97599528,16.616305 2.97599528,15.65048 L2.97501778,15.65048 L2.97501778,13.50008 L0.75041853,13.50008 C0.33636853,13.50008 0.000418530273,13.16413 0.000418530273,12.75008 C-0.00641646973,12.54893 0.0707310303,12.3545825 0.21233353,12.212005 C0.35490828,12.069425 0.55021328,11.993255 0.75040828,12.00009 L6.57565778,12.00009 C6.98970778,12.00009 7.32565778,12.33604 7.32565778,12.75009 C7.31295778,13.159265 6.98483278,13.487395 6.57565778,13.50009 L4.47605778,13.50009 L4.47605778,15.65049 C4.47605778,15.788185 4.58738528,15.90049 4.72605778,15.90049 L4.72508278,15.90049 L4.75047278,15.90049 C5.07957278,14.83019 6.06882278,14.09874 7.18797278,14.09874 C8.30809778,14.09874 9.29734778,14.83019 9.62547278,15.90049 L15.2007228,15.90049 L15.2007228,6.74999 C15.1890028,6.6171775 15.0835353,6.51171 14.9507228,6.49999 L4.72622278,6.49999 C4.58755028,6.49999 4.47622278,6.612295 4.47622278,6.74999 L4.47622278,7.37499 L6.57582278,7.37499 C6.98987278,7.37499 7.32582278,7.71094 7.32582278,8.12499 C7.31312278,8.534165 6.98499778,8.862295 6.57582278,8.87499 L0.75057228,8.87499 C0.33652228,8.87499 0.000572280273,8.53904 0.000572280273,8.12499 C-0.00626271973,7.92384 0.0708847803,7.7294925 0.21248728,7.586915 C0.35506228,7.444335 0.55036728,7.368165 0.75056228,7.375 L2.97613778,7.375 L2.97613778,6.75 C2.97613778,5.7832 3.75933778,5 4.72613778,5 L14.9506378,5 C15.4144878,5 15.8598078,5.184575 16.1879378,5.5127 C16.5160678,5.840825 16.7006378,6.286125 16.7006378,6.75 L16.7006378,7.5752 L19.4261378,7.5752 C20.2493628,7.5752 21.0071878,8.026375 21.4007378,8.75 L22.5755378,10.9004 Z M19.4260378,9.0752 L16.7003628,9.0752 L16.7003628,10.875 L20.8508628,10.875 L20.0754628,9.4502 C19.9416628,9.2177775 19.6936128,9.0752 19.4260378,9.0752 Z M7.20052778,17.74996 C7.47885278,17.74996 7.74643778,17.6396 7.94272778,17.442335 C8.14000028,17.24506 8.25035278,16.97846 8.25035278,16.700135 C8.26107778,16.260685 8.00230278,15.8593125 7.59897778,15.68646 C7.19467778,15.5136 6.72690278,15.604425 6.41635278,15.914975 C6.10483028,16.225525 6.01498528,16.694275 6.18783778,17.0976 C6.36068778,17.5019025 6.76108778,17.759715 7.20053778,17.74995 Z M19.5755378,17.74995 L19.5755278,17.74996 C19.8538528,17.74996 20.1214378,17.6396 20.3177278,17.442335 C20.5150003,17.24506 20.6253528,16.97846 20.6253528,16.700135 C20.6360778,16.260685 20.3773028,15.8593125 19.9739778,15.68646 C19.5696778,15.5136 19.1019028,15.604425 18.7913528,15.914975 C18.4798303,16.225525 18.3899853,16.694275 18.5628378,17.0976 C18.7356878,17.5019025 19.1360878,17.759715 19.5755378,17.74995 Z M22.3000378,15.90035 L22.3009378,12.37485 L16.7004378,12.37485 L16.7004378,15.90035 L17.1506378,15.90035 C17.4924378,14.849575 18.4709378,14.138625 19.5754378,14.138625 C20.6799378,14.138625 21.6594128,14.849575 22.0002378,15.90035 L22.3000378,15.90035 Z M8.10103778,11.17465 L2.27577778,11.17466 C1.86172728,11.17466 1.52577728,10.83871 1.52577728,10.42466 C1.53847728,10.01646 1.86660228,9.687355 2.27577778,9.67466 L8.10102778,9.67466 C8.51507778,9.67466 8.85102778,10.01061 8.85102778,10.42466 C8.85786278,10.62581 8.78071528,10.8211325 8.63911278,10.962735 C8.49653778,11.105315 8.30221028,11.181485 8.10103778,11.17465 Z" id="path-1"></path>
    </defs>
    <g id="Icons-/-delivery" stroke="none" stroke-width="1" fill="none" fill-rule="evenodd">
        <mask id="mask-2" fill="white">
            <use xlink:href="#path-1"></use>
        </mask>
        <use id="Combined-Shape" fill="#000000" xlink:href="#path-1"></use>
        <g id="colors-/-black" mask="url(#mask-2)">
            <rect fill="#F6F9FC" x="0" y="0" width="25" height="24"></rect>
            <rect fill="#111111" fill-rule="evenodd" x="0" y="0" width="25" height="24"></rect>
        </g>
    </g>
</svg>