<?xml version="1.0" encoding="UTF-8"?>
<svg width="24px" height="24px" viewBox="0 0 24 24" version="1.1" xmlns="http://www.w3.org/2000/svg" xmlns:xlink="http://www.w3.org/1999/xlink">
    <!-- Generator: Sketch 52.5 (67469) - http://www.bohemiancoding.com/sketch -->
    <title>Icons / sidenav/ client</title>
    <desc>Created with Sketch.</desc>
    <defs>
        <path d="M17.9722222,9.69623735 L17.9723333,9.69625957 C16.8058889,9.69625957 15.7501222,8.89112068 15.5005556,7.72467623 C15.3616667,7.05845401 15.4723333,6.39223179 15.8336667,5.80845401 C16.195,5.25289846 16.7505556,4.83623179 17.4167778,4.6973429 C18.7773333,4.3913429 20.138,5.25289846 20.444,6.61356512 C20.5828889,7.27978735 20.4722222,7.94600957 20.1108889,8.52978735 C19.7495556,9.0853429 19.194,9.50200957 18.5277778,9.64089846 C18.3335556,9.66802623 18.16645,9.69623735 17.9722222,9.69623735 Z M16.8339722,6.41818179 L16.8339833,6.4181929 C16.6397556,6.72416512 16.5562056,7.08549846 16.6950944,7.44574846 C16.8622056,8.16730401 17.5837611,8.64040401 18.3064278,8.47330401 C18.6677611,8.38974846 18.9737556,8.16841512 19.1679833,7.86241512 C19.3632944,7.55752623 19.4186333,7.1961929 19.3350833,6.83485957 C19.1679722,6.19574846 18.6124167,5.77908179 18.0015278,5.77908179 C17.8897556,5.77908179 17.8062056,5.77908179 17.6955278,5.8072929 C17.3341944,5.89084846 17.0282,6.11218179 16.8339722,6.41818179 Z M19.7777778,10.6684596 L19.7778833,10.6686262 C20.8889944,10.6686262 21.7787611,11.5855151 21.75055,12.668404 L21.75055,16.1689596 C21.75055,17.0576262 21.13855,17.8356151 20.3334389,18.0851818 L20.3334389,19.9460707 C20.3334389,20.2520707 20.0556611,20.5298485 19.7496611,20.5298485 C19.4436611,20.5298485 19.1658833,20.2791818 19.1658833,19.9460707 L19.1658833,16.9741262 L19.7496611,16.9741262 C20.1934389,16.9741262 20.5547722,16.613904 20.5547722,16.1690151 L20.5547722,12.6684596 C20.5547722,12.2246818 20.19455,11.8633485 19.7496611,11.8633485 L16.4163278,11.8633485 C15.97255,11.8633485 15.6112167,12.2235707 15.6112167,12.6684596 L15.6112167,16.1970707 C15.6112167,16.6408485 15.9714389,17.0021818 16.4163278,17.0021818 L17.0001056,17.0021818 L17.002275,19.9460707 C17.002275,20.2520707 16.7244972,20.5298485 16.4184972,20.5298485 C16.1124972,20.5298485 15.8347194,20.2791818 15.8347194,19.9460707 L15.8347194,18.0851818 C15.5004972,18.0027373 15.1956028,17.8074151 14.9731639,17.5578485 C14.7224972,17.807404 14.4447194,17.974504 14.1116083,18.0851818 L14.1116083,19.9460707 C14.1116083,20.2520707 13.8609417,20.5298485 13.5278306,20.5298485 C13.2218306,20.5298485 12.9440528,20.2791818 12.9440528,19.9460707 L12.9440528,16.9741262 L13.5278306,16.9741262 C13.9716083,16.9741262 14.3329417,16.613904 14.3329417,16.1690151 L14.3329417,11.085404 C14.3329417,10.6416262 13.9727194,10.2802929 13.5278306,10.2802929 L10.1944972,10.2802929 C9.75071944,10.2802929 9.38938611,10.6405151 9.38938611,11.085404 L9.38938611,16.1970707 C9.38938611,16.6408485 9.74960833,17.0021818 10.1944972,17.0021818 L10.778275,17.0021818 L10.7793611,19.9730151 C10.7793611,20.2790151 10.5286944,20.5567929 10.1955833,20.5567929 C9.88958333,20.5567929 9.61180556,20.3061262 9.61180556,19.9730151 L9.61180556,18.1121262 C9.25047222,18.0014596 8.94448333,17.7790151 8.69491667,17.5012373 C8.47247222,17.6965596 8.19469444,17.8625762 7.91691667,17.9461262 L7.91691667,19.8070151 C7.91691667,20.1130151 7.66625,20.3907929 7.33313889,20.3907929 C7.02713889,20.3907929 6.74936111,20.1401262 6.74936111,19.8070151 L6.74936111,16.8350707 L7.33313889,16.8350707 C7.77691667,16.8350707 8.13825,16.4748485 8.13825,16.0299596 L8.13825,12.529404 C8.13825,12.0856262 7.77802778,11.7242929 7.33313889,11.7242929 L3.99980556,11.7242929 C3.55602778,11.7242929 3.19469444,12.0845151 3.19469444,12.529404 L3.19469444,16.0299596 C3.19469444,16.4737373 3.55491667,16.8350707 3.99980556,16.8350707 L4.58358333,16.8350707 L4.58466667,19.8070151 C4.58466667,20.1130151 4.30688889,20.3907929 4.00088889,20.3907929 C3.69488889,20.3907929 3.41711111,20.1401262 3.41711111,19.8070151 L3.41711111,17.9461262 C2.58377778,17.6965707 2,16.9185707 2,16.029904 L2,12.5293485 C2,11.4182373 2.88866667,10.5295707 3.99977778,10.5295707 L7.33311111,10.5295707 C7.638,10.5295707 7.944,10.6131207 8.22177778,10.7520096 C8.38888889,9.80800957 9.194,9.0853429 10.1944444,9.0853429 L13.5277778,9.0853429 C14.5835556,9.0853429 15.4440056,9.8633429 15.5275556,10.8908985 C15.8053333,10.7520096 16.1113333,10.6684596 16.4444444,10.6684596 L19.7777778,10.6684596 Z M7.02833333,4.86345957 L7.02833333,4.86356512 C7.58388889,5.22381512 8.00055556,5.77937068 8.13944444,6.44667623 C8.44544444,7.80723179 7.58388889,9.16789846 6.22322222,9.47389846 C6.05611111,9.50102623 5.86189444,9.52923735 5.66766667,9.52923735 C5.19566667,9.52923735 4.72366667,9.39035957 4.307,9.1407929 C3.75144444,8.77945957 3.33477778,8.22390401 3.19588889,7.55768179 C3.057,6.89145957 3.16766667,6.22523735 3.529,5.64145957 C3.89033333,5.08590401 4.44588889,4.66923735 5.11211111,4.53034846 C5.77833333,4.39145957 6.44455556,4.50212623 7.02833333,4.86345957 Z M5.97255556,8.33568179 L5.9726,8.33569846 C6.69523889,8.16858735 7.13904167,7.41880957 7.00232222,6.72436512 C6.91876667,6.36303179 6.69743333,6.05703735 6.39143333,5.86280957 C6.16898889,5.72392068 5.91833333,5.64037068 5.66876667,5.64037068 C5.55699444,5.64037068 5.47344444,5.64037068 5.36276667,5.66858179 C5.00143333,5.75213735 4.69543889,5.97347068 4.50121111,6.27947068 C4.3059,6.58435957 4.25056111,6.9456929 4.33411111,7.30702623 C4.41766667,7.66835957 4.639,7.97435401 4.945,8.16858179 C5.24988889,8.3638929 5.61122222,8.41923179 5.97255556,8.33568179 Z M11.3055556,3.05790401 L11.3055556,3.05792623 C11.9728611,2.91903735 12.6673056,3.02970401 13.2217778,3.39212068 C13.7773333,3.75345401 14.194,4.30900957 14.3328889,4.97523179 C14.6388889,6.33578735 13.7773333,7.69645401 12.4166667,8.00245401 C12.2224444,8.02958179 12.0553389,8.0577929 11.8611111,8.0577929 C10.6946667,8.0577929 9.66711111,7.25157068 9.38933333,6.08512623 C9.08333333,4.72457068 9.94488889,3.36390401 11.3055556,3.05790401 Z M12.6119722,4.39037623 L12.6119722,4.3903929 C12.3895278,4.25150401 12.1388833,4.19616512 11.9175278,4.19616512 C11.8057556,4.19616512 11.7222056,4.19616512 11.6115278,4.22437623 C10.8899722,4.39148735 10.4168722,5.1130429 10.5839722,5.83570957 C10.7510833,6.55726512 11.4726389,7.03036512 12.1953056,6.86326512 C12.9168611,6.69615401 13.3899611,5.97459846 13.2228611,5.25193179 C13.1393056,4.89059846 12.9179722,4.58460401 12.6119722,4.39037623 Z" id="path-1"></path>
    </defs>
    <g id="Icons-/-sidenav/-client" stroke="none" stroke-width="1" fill="none" fill-rule="evenodd">
        <mask id="mask-2" fill="white">
            <use xlink:href="#path-1"></use>
        </mask>
        <use id="Combined-Shape" fill="#000000" xlink:href="#path-1"></use>
        <g id="colors-/-black" mask="url(#mask-2)">
            <rect fill="#F6F9FC" x="0" y="0" width="25" height="24"></rect>
            <rect fill="#111111" fill-rule="evenodd" x="0" y="0" width="25" height="24"></rect>
        </g>
    </g>
</svg>