<?xml version="1.0" encoding="UTF-8"?>
<svg width="24px" height="24px" viewBox="0 0 24 24" version="1.1" xmlns="http://www.w3.org/2000/svg" xmlns:xlink="http://www.w3.org/1999/xlink">
    <!-- Generator: Sketch 52.5 (67469) - http://www.bohemiancoding.com/sketch -->
    <title>Icons / ERP</title>
    <desc>Created with Sketch.</desc>
    <defs>
        <path d="M22.5100429,11.2400435 L22.509864,11.2400435 C22.7803895,11.2400435 22.9990018,11.453857 23,11.718431 L23,12.0454869 C23,13.1233021 22.1035981,14 21.0015588,14 L1.99844117,14 C0.896401922,14 2.0783375e-13,13.1233021 2.0783375e-13,12.0454869 L2.0783375e-13,11.718431 C2.0783375e-13,11.4538495 0.218619033,11.2400435 0.489139323,11.2400435 L2.19311561,11.2400435 L2.19311561,1.20667808 C2.19311561,0.5408695 2.74711234,6.21724894e-15 3.42691403,6.21724894e-15 L19.5722682,6.21724894e-15 C20.253041,6.21724894e-15 20.8060666,0.541819227 20.8060666,1.20667808 L20.8060666,11.2400435 L22.5100429,11.2400435 Z M3.17241644,1.20667808 L3.17241644,11.2400435 L19.8268629,11.2400435 L19.8268629,1.20667808 C19.8268629,1.06902266 19.713066,0.957727153 19.5723168,0.957727153 L3.42696259,0.957727153 C3.28621333,0.957727153 3.17241644,1.06902266 3.17241644,1.20667808 Z M21.0007922,13.0420254 L21.00092,13.0420254 C21.511014,13.0420254 21.9342559,12.674956 22.009123,12.1965685 L13.3216038,12.1965685 L13.3216038,12.3937768 C13.3216038,12.6583582 13.1029848,12.8721643 12.8324645,12.8721643 L10.1671266,12.8721643 C9.89659869,12.8721643 9.67798732,12.6583507 9.67798732,12.3937768 L9.67798732,12.1965685 L0.99149034,12.1965685 C1.06636512,12.674931 1.4895993,13.0420254 1.99869672,13.0420254 L21.0007922,13.0420254 Z M9.18288528,7.45238244 L9.18288528,8.41627199 L5.96045862,8.41627199 L5.96045862,4.62569511 L9.11090667,4.62569511 L9.11090667,5.58958466 L7.24499983,5.58958466 L7.24499983,6.03362367 L8.88389724,6.03362367 L8.88389724,6.95419234 L7.24499983,6.95419234 L7.24499983,7.45238244 L9.18288528,7.45238244 Z M11.3477802,7.46321266 L10.993424,7.46321266 L10.993424,8.41627199 L9.68673549,8.41627199 L9.68673549,4.62569511 L11.5526423,4.62569511 C11.9106915,4.62569511 12.2225957,4.68345571 12.4883642,4.79897863 C12.7541326,4.91450155 12.9589928,5.08056325 13.1029507,5.29716873 C13.2469086,5.51377421 13.3188865,5.7664768 13.3188865,6.05528411 C13.3188865,6.32604095 13.2561366,6.56249838 13.1306348,6.76466349 C13.005133,6.9668286 12.8242655,7.12747526 12.5880268,7.24660827 L13.4019387,8.41627199 L12.0066612,8.41627199 L11.3477802,7.46321266 Z M12.0011244,6.05528411 C12.0011244,5.91449055 11.9568303,5.80528692 11.8682408,5.72766996 C11.7796513,5.650053 11.6467691,5.6112451 11.4695901,5.6112451 L10.993424,5.6112451 L10.993424,6.49932311 L11.4695901,6.49932311 C11.6467691,6.49932311 11.7796513,6.46051521 11.8682408,6.38289825 C11.9568303,6.30528129 12.0011244,6.19607767 12.0011244,6.05528411 Z M15.6775699,4.62569511 C16.0356191,4.62569511 16.3475233,4.68345571 16.6132918,4.79897863 C16.8790602,4.91450155 17.0839204,5.08056325 17.2278783,5.29716873 C17.3718362,5.51377421 17.4438141,5.7664768 17.4438141,6.05528411 C17.4438141,6.34409141 17.3718362,6.59679401 17.2278783,6.81339948 C17.0839204,7.03000496 16.8790602,7.19606666 16.6132918,7.31158958 C16.3475233,7.42711251 16.0356191,7.4848731 15.6775699,7.4848731 L15.1183516,7.4848731 L15.1183516,8.41627199 L13.8116631,8.41627199 L13.8116631,4.62569511 L15.6775699,4.62569511 Z M15.5945177,6.49932311 C15.7716967,6.49932311 15.9045789,6.46051521 15.9931684,6.38289825 C16.0817579,6.30528129 16.126052,6.19607767 16.126052,6.05528411 C16.126052,5.91449055 16.0817579,5.80528692 15.9931684,5.72766996 C15.9045789,5.650053 15.7716967,5.6112451 15.5945177,5.6112451 L15.1183516,5.6112451 L15.1183516,6.49932311 L15.5945177,6.49932311 Z" id="path-1"></path>
    </defs>
    <g id="Icons-/-ERP" stroke="none" stroke-width="1" fill="none" fill-rule="evenodd">
        <g id="np_macbook_1863338_000000" transform="translate(1.000000, 6.000000)">
            <g id="↳🎨-Color">
                <mask id="mask-2" fill="white">
                    <use xlink:href="#path-1"></use>
                </mask>
                <use id="Mask" fill="#000000" fill-rule="nonzero" xlink:href="#path-1"></use>
                <g id="colors-/-black" mask="url(#mask-2)">
                    <g transform="translate(-1.000000, -6.000000)">
                        <rect fill="#F6F9FC" x="0" y="0" width="25" height="24"></rect>
                        <rect id="colors-/-black" stroke="none" fill="#111111" fill-rule="evenodd" x="0" y="0" width="25" height="24"></rect>
                    </g>
                </g>
            </g>
        </g>
    </g>
</svg>